<svg id="Ebene_1" data-name="Ebene 1" xmlns="http://www.w3.org/2000/svg" viewBox="0 0 861.54 934.65"><defs><style>.cls-1,.cls-4,.cls-5{stroke:#1d1d1b;stroke-miterlimit:10;}.cls-2{fill:#3d57a3;}.cls-3{fill:#fff;}.cls-4{fill:#929293;}.cls-5{fill:#f9f6c6;}</style></defs><title>bus_icon</title><rect class="cls-1" x="766.92" y="840.31" width="72.31" height="93.85" rx="29.49" ry="29.49"/><rect class="cls-1" x="22.31" y="832.62" width="72.31" height="93.85" rx="29.49" ry="29.49"/><path class="cls-2" d="M891.72,33.85H108.28a39.16,39.16,0,0,0-39,39V856.33a39.16,39.16,0,0,0,39,39H891.72a39.16,39.16,0,0,0,39-39V72.9A39.16,39.16,0,0,0,891.72,33.85ZM872.31,665.26a39.16,39.16,0,0,1-39,39H166.74a39.16,39.16,0,0,1-39-39V264a39.16,39.16,0,0,1,39-39H833.26a39.16,39.16,0,0,1,39,39V665.26Z" transform="translate(-69.23 -33.85)"/><rect class="cls-3" x="58.46" y="191.08" width="744.62" height="479.38" rx="39.05" ry="39.05"/><rect class="cls-4" x="127.69" y="101.21" width="744.62" height="84.36" rx="12" ry="12" transform="translate(930.77 252.92) rotate(180)"/><circle class="cls-5" cx="111.54" cy="768.77" r="53.08"/><circle class="cls-5" cx="750" cy="768.77" r="53.08"/></svg>