<svg width="192" height="192" xmlns="http://www.w3.org/2000/svg">

 <g>
  <title>background</title>
  <rect fill="none" id="canvas_background" height="194" width="194" y="-1" x="-1"/>
 </g>
 <g>
  <title>Layer 1</title>
  <g stroke="null" id="svg_1">
   <g stroke="null" id="svg_2">
    <path stroke="null" id="svg_3" fill="#FFFFFF" d="m98.226609,100.580626l0,91.039127l82.419397,-47.550265l0,-91.039127l-82.419397,47.550265zm39.973758,-9.911415c0.560633,-0.103526 1.116488,-0.157678 1.661193,-0.157678c4.709634,0 8.162623,3.73649 8.205626,8.882526c0.043003,5.697113 -4.164929,11.139392 -9.385822,12.131649c-0.565411,0.108304 -1.132415,0.164049 -1.689862,0.164049c-4.684151,0 -8.11962,-3.725341 -8.165808,-8.858636c-0.070079,-5.684371 4.13626,-11.142578 9.374673,-12.16191zm12.138019,30.880994c0.299429,0.903065 1.151527,1.586336 2.532404,2.027516c4.784492,1.605449 9.164436,5.322827 12.029715,10.20288l0.538335,0.893509c1.169047,1.904877 2.17723,3.550144 1.154713,4.738303c-0.202274,0.245277 -0.50011,0.38862 -0.832986,0.38862c-0.691235,0 -1.299649,-0.597265 -2.146969,-1.42388c-0.431624,-0.422067 -0.877582,-0.856876 -1.315576,-1.189752c-2.463918,-1.890543 -5.13648,-2.846167 -7.947607,-2.846167c-13.482264,0 -28.214803,21.49358 -35.796088,34.306907c-1.850725,3.147189 -2.88917,5.169927 -3.580405,6.509393c-0.898287,1.755163 -1.204086,2.346057 -1.987698,2.346057l-0.17679,0l-0.310578,-0.113082c-1.213643,-0.598858 -0.880767,-1.45892 0.724682,-5.595179c0.450736,-1.159491 1.01774,-2.61841 1.710567,-4.461172c3.978582,-10.60265 7.947607,-19.53455 11.795587,-26.545646c0.898287,-2.158118 2.357206,-4.314643 3.642521,-6.216335c1.732865,-2.561073 3.368575,-4.98358 2.827055,-6.33101c-0.296243,-0.734238 -1.321947,-1.294871 -3.051626,-1.665971c-5.606328,-1.731272 -10.564425,-6.227484 -13.335735,-12.045642c-0.136973,-0.299429 -0.293058,-0.613192 -0.450736,-0.934919c-0.86484,-1.748792 -1.608634,-3.258678 -0.832986,-4.179263c0.224572,-0.27076 0.544706,-0.422067 0.893509,-0.422067c0.786797,0 1.508293,0.756536 2.339686,1.629339c0.293058,0.304207 0.578153,0.606821 0.836171,0.832986c3.351055,2.981547 6.869345,4.491433 10.464084,4.491433c12.490008,0 24.223479,-17.634451 31.962442,-30.898514c1.511479,-2.567444 2.333316,-3.432283 3.266642,-3.432283c0.289873,0 0.512852,0.090784 0.662566,0.151307c0.65301,0.186347 0.917399,0.51763 1.048001,0.77087c0.336061,0.641861 0.444365,1.785424 -0.998627,5.756043c-4.083701,11.489788 -8.329857,20.012362 -13.768951,27.635058c-1.680306,2.344465 -2.336501,4.287567 -1.895321,5.620663z"/>
    <path stroke="null" id="svg_4" fill="#FFFFFF" d="m179.268315,48.419475l-83.171155,-48.039226l-83.179119,48.039226l83.179119,48.031262l83.171155,-48.031262zm-85.477395,8.667511c-0.525593,-0.087599 -1.119673,-0.132195 -1.775868,-0.132195c-4.144223,0 -9.6964,1.807722 -11.142578,3.580405c0.003185,1.605449 -0.603636,3.166301 -1.763127,4.534437c-2.385875,2.763346 -6.812007,4.478692 -11.559867,4.478692c-2.137413,0 -4.258898,-0.356766 -6.131922,-1.030481c-3.492806,-1.245497 -5.897794,-3.478472 -6.603363,-6.123958c-0.554262,-2.083261 0.009556,-4.241379 1.583151,-6.080955c2.360392,-2.772903 6.788117,-4.496212 11.547125,-4.496212c2.134227,0 4.255713,0.355174 6.135107,1.027296c1.200901,0.431624 2.283942,0.992256 3.30646,1.71216c0.1529,0.073265 0.743794,0.283502 2.056185,0.283502c2.933766,0 7.54306,-1.09419 10.613799,-2.887578l0,-1.006591l0.637083,0c-0.046189,-0.119453 -0.09397,-0.240499 -0.17042,-0.363137c-0.672122,-1.054372 -2.447991,-1.892136 -4.87209,-2.309425l-0.485776,0.015927c-0.21183,0.004778 -0.379064,0.007964 -0.457107,0.01752c-1.141971,0.159271 -2.137413,0.04141 -3.083481,-0.286687c-1.294871,-0.471441 -2.17723,-1.321947 -2.438434,-2.338094c-0.215015,-0.836171 0.009556,-1.691455 0.630712,-2.404987c0.852098,-1.001813 2.363577,-1.603856 4.034327,-1.603856c0.750165,0 1.498737,0.129009 2.167674,0.372693c1.820464,0.610007 2.819091,2.070519 2.425693,3.5597c-0.015927,0.086006 -0.043003,0.165642 -0.084413,0.250055c1.19453,0.719904 3.96584,1.721716 5.486875,1.876209c-0.740609,-1.557667 -1.63571,-3.276198 -2.725122,-5.228857l-4.610887,-7.504835c-0.345617,-0.108304 -0.691235,-0.19431 -0.802724,-0.195903c-0.584523,0.060523 -1.223199,0.092377 -1.860282,0.092377c-2.102373,0 -4.196783,-0.348803 -6.057064,-1.008183c-3.502363,-1.277351 -5.910535,-3.534217 -6.609734,-6.19563c-0.544706,-2.07689 0.015927,-4.225451 1.573594,-6.049101c2.392246,-2.763346 6.824749,-4.480285 11.566238,-4.480285c2.143784,0 4.268455,0.359952 6.146256,1.040038c3.484843,1.24709 5.881867,3.480065 6.579472,6.122365c0.551077,2.086446 -0.019112,4.250935 -1.605449,6.095289c-1.028889,1.239126 -2.554702,2.307832 -4.402242,3.078702c-0.012742,0.012742 -0.049374,0.046189 -0.100341,0.097155l4.532844,7.345564c2.081668,2.698046 4.354461,4.55992 6.716445,5.462985l0.183161,0.065301c0.277131,0.052559 0.557447,0.111489 0.836171,0.17679c1.919212,-0.033447 5.039325,-0.659381 5.257526,-2.80635c-0.42366,-1.108524 -0.208645,-2.304647 0.606821,-3.314423c1.116488,-1.278944 3.045256,-2.029109 5.185854,-2.029109c0.955624,0 1.903285,0.160863 2.747419,0.461885c1.595892,0.573374 2.693267,1.624561 3.01818,2.884392c0.261204,1.025703 -0.019112,2.072112 -0.793168,2.949693c-1.259831,1.511479 -3.903725,2.315796 -6.439314,1.925583c-0.898287,0.259611 -1.850725,0.656195 -2.631152,1.10056l-0.998627,0.649824c-0.485776,0.363137 -0.868025,0.758128 -1.122858,1.169047c0.718311,0.974737 1.032074,2.011589 0.930141,3.048441c2.60089,1.255053 6.227484,2.269607 9.650211,2.691675c0.528779,-0.086006 0.77087,-0.138566 0.887138,-0.168827c2.473474,-2.355614 6.530098,-3.77153 10.85589,-3.77153c2.134227,0 4.255713,0.358359 6.135107,1.033667c3.486435,1.256646 5.888237,3.497584 6.592214,6.147849c0.551077,2.084853 -0.012742,4.242971 -1.586336,6.080955c-2.369948,2.764939 -6.797673,4.48347 -11.547125,4.48347c-2.150154,0 -4.281196,-0.361544 -6.165368,-1.043223c-4.680966,-1.688269 -7.278671,-5.123738 -6.684591,-8.708921c-4.523288,-1.63571 -8.003352,-2.158118 -12.359406,-1.822057c-0.351988,0.168827 -0.731052,0.3058 -1.129229,0.407733c-0.633897,0.27076 -0.9827,0.825022 -0.92377,1.608634l0.17042,0.832986c0.251648,0.592487 0.727867,1.188159 1.31239,1.557667c0.192718,0.052559 0.369508,0.11786 0.522408,0.195903c1.40636,0.498517 2.444805,1.485996 2.761754,2.664599c0.261204,0.961995 0.012742,1.954251 -0.691235,2.78883c-1.024111,1.183381 -2.81272,1.887358 -4.797233,1.887358c-0.887138,0 -1.772683,-0.149714 -2.55948,-0.433216c-1.493959,-0.54152 -2.526033,-1.519442 -2.833426,-2.686897c-0.254833,-0.960402 0.003185,-1.949473 0.718311,-2.785644c0.245277,-0.313763 0.578153,-0.570189 0.890323,-0.783612c0.084413,-0.210237 0.133787,-0.660973 -0.015927,-1.299649c-0.140158,-0.598858 -0.802724,-2.655042 -3.409985,-3.98336l-0.969959,-0.492146z"/>
    <path stroke="null" id="svg_5" fill="#FFFFFF" d="m11.354003,52.980988l0,91.039127l82.390729,47.575748l0,-91.042313l-82.390729,-47.572563zm65.83454,96.334878c-0.133787,0.422067 -0.286687,0.896694 -0.447551,1.4414c-0.874396,3.00066 -2.65345,8.409492 -4.741488,10.921191c-0.528779,0.672122 -1.119673,1.038445 -1.844355,1.137193c-0.121046,0.012742 -0.21183,0.01752 -0.310578,0.01752c-0.538335,0 -1.234348,-0.140158 -2.486215,-0.498517l-4.846607,-1.412731c-2.510106,-0.727867 -4.765379,-1.384062 -5.071179,-1.485996c-4.523288,-1.310798 -10.08502,-4.17767 -10.782626,-7.909383c-0.215015,-1.161083 -0.019112,-2.890763 2.1183,-4.564698c-0.874396,-0.063708 -1.546518,-0.385435 -2.006811,-0.957217c-0.9827,-1.216828 -0.691235,-3.218861 -0.434809,-4.98358c0.136973,-0.930141 0.320134,-2.204306 0.108304,-2.54196c-0.162456,-0.250055 -0.258019,-0.366323 -0.307392,-0.418882c-0.071672,0.015927 -0.173605,0.044596 -0.264389,0.071672c-0.417289,0.121046 -1.044816,0.304207 -2.030701,0.304207c-1.399989,0 -3.104186,-0.363137 -5.21293,-1.105339c-0.463478,-0.172012 -1.860282,0.336061 -3.244344,0.88236c-1.866653,0.735831 -4.190412,1.651637 -6.544433,1.65323c-0.852098,0 -1.67075,-0.122638 -2.425693,-0.36473c-0.473034,-0.129009 -1.589521,-0.433216 -1.9654,-1.46529c-0.267575,-0.739016 -0.055745,-1.616598 0.629119,-2.607261c0.289873,-0.399769 0.571782,-0.77087 0.848913,-1.130822c1.493959,-1.94151 2.48303,-3.225231 1.31239,-5.475726c-0.162456,-0.272353 -1.25346,-0.90625 -2.052999,-1.368135c-2.111929,-1.224792 -4.741488,-2.747419 -4.974024,-4.849793c-0.460292,-3.553329 -0.495332,-8.441347 1.962215,-11.448377c1.291685,-1.578373 3.113742,-2.462325 5.418389,-2.624781c0.248462,-0.019112 0.743794,-0.19431 1.226384,-0.36473c0.874396,-0.308985 1.866653,-0.660973 2.799979,-0.660973c0.764499,0 1.387248,0.238906 1.84754,0.710347c0.049374,0.049374 0.146529,0.079635 0.277131,0.079635c0.568596,0 1.396804,-0.522408 1.642081,-1.033667c0.065301,-0.210237 -0.195903,-0.899879 -0.32332,-1.232755c-0.286687,-0.762907 -0.584523,-1.549704 -0.028669,-2.102373c0.463478,-0.452329 1.237533,-0.402955 2.078483,-0.216608c0.345617,0.07645 0.705569,0.156085 1.004998,0.156085c0.283502,0 0.38862,-0.070079 0.450736,-0.132195c0.345617,-0.337654 1.148342,-1.223199 2.081668,-2.247309c3.005438,-3.296903 4.158558,-4.513731 4.647519,-4.768564l0.173605,-0.092377l0.342432,-0.036632c0.675308,0 0.989071,0.567004 1.178603,0.90625c0.055745,0.100341 0.149714,0.272353 0.199088,0.315356c1.035259,-0.563818 6.654329,-3.804977 10.358966,-6.27208c1.325132,-0.848913 1.720123,-1.379284 1.844355,-2.479845c0.049374,-0.568596 0.571782,-1.263017 1.88895,-1.263017c0.936512,0 2.352428,0.391806 3.257086,1.493959c2.15334,2.374726 6.847047,8.302781 5.421574,13.6272c-0.224572,0.885545 -0.911028,1.398397 -1.88895,1.398397c-0.597265,0 -1.207272,-0.179976 -1.69464,-0.326505c-0.065301,-0.020705 -0.127417,-0.039818 -0.186347,-0.057337c-0.224572,0.643454 0.05893,2.275978 2.078483,6.189259c0.251648,0.488961 0.431624,0.852098 0.495332,1.024111l0.143344,0.415697c0.304207,0.872803 0.571782,1.626154 0.179976,2.178823c-0.186347,0.261204 -0.485776,0.412511 -0.818651,0.412511c-0.896694,0.062116 -2.613632,1.266202 -3.69508,2.627966c-0.304207,0.390213 -0.221386,0.688049 -0.046189,1.17701c0.11786,0.334468 0.254833,0.713533 0.09397,1.126044c-0.165642,0.466663 -0.574967,0.758128 -1.092597,0.758128c-0.230943,0 -0.44118,-0.054152 -0.646639,-0.106711c-0.17042,-0.04141 -0.342432,-0.087599 -0.48259,-0.087599c-0.832986,0.011149 -1.390433,0.234128 -1.505108,0.445958c-0.068486,0.125824 0.019112,0.404548 0.221386,0.727867c1.01774,1.564038 2.068926,1.777461 2.964028,1.777461c0.855284,0 1.814093,-0.222979 2.921024,-0.480997c0.955624,-0.222979 2.037072,-0.474627 3.191785,-0.598858c0.09397,-0.009556 0.17679,-0.012742 0.264389,-0.012742c1.162676,0 2.510106,0.735831 3.795421,2.070519c1.602263,1.665971 3.427505,4.711227 3.30646,7.817006c-0.019112,0.527186 -0.133787,0.825022 -0.248462,1.113302c-0.039818,0.101933 -0.084413,0.215015 -0.127417,0.358359c-0.192718,0.563818 -0.646639,0.813873 -0.979515,0.997035c-0.183161,0.100341 -0.358359,0.195903 -0.450736,0.310578c-1.957437,2.414544 -0.012742,7.665698 0.914214,9.811075c0.165642,0.36473 0.332876,0.668937 0.476219,0.934919c0.339247,0.619563 0.629119,1.154713 0.629119,1.916026c-0.01752,0.710347 -0.254833,1.454141 -0.584523,2.481437z"/>
   </g>
  </g>
 </g>
</svg>