<?xml version="1.0" encoding="utf-8"?>
<!-- Generator: Adobe Illustrator 19.2.1, SVG Export Plug-In . SVG Version: 6.00 Build 0)  -->
<svg version="1.1" id="Ebene_1" xmlns="http://www.w3.org/2000/svg" xmlns:xlink="http://www.w3.org/1999/xlink" x="0px" y="0px"
	 viewBox="0 0 60.4 66.6" style="enable-background:new 0 0 60.4 66.6;" xml:space="preserve">
<style type="text/css">
	.st0{stroke:#1D1D1B;stroke-width:2;stroke-miterlimit:10;}
	.st1{fill:#3D57A3;}
	.st2{fill:#FFFFFF;}
	.st3{fill:#929293;stroke:#1D1D1B;stroke-width:2;stroke-miterlimit:10;}
	.st4{fill:#F9F6C6;stroke:#1D1D1B;stroke-width:2;stroke-miterlimit:10;}
</style>
<title>bus_icon</title>
<path class="st0" d="M3.6,58.4h0.9c1.1,0,2.1,0.9,2.1,2.1v2.4c0,1.1-0.9,2.1-2.1,2.1H3.6c-1.1,0-2.1-0.9-2.1-2.1v-2.4
	C1.6,59.4,2.5,58.4,3.6,58.4z"/>
<path class="st0" d="M55.9,59h0.9c1.1,0,2.1,0.9,2.1,2.1v2.4c0,1.1-0.9,2.1-2.1,2.1h-0.9c-1.1,0-2.1-0.9-2.1-2.1V61
	C53.8,59.9,54.7,59,55.9,59z"/>
<path class="st1" d="M57.7,0h-55C1.2,0,0,1.2,0,2.7v55c0,1.5,1.2,2.7,2.7,2.7h55c1.5,0,2.7-1.2,2.7-2.7v-55C60.4,1.2,59.2,0,57.7,0z
	 M56.4,44.3c0,1.5-1.2,2.7-2.7,2.7H6.8c-1.5,0-2.7-1.2-2.7-2.7V16.2c0-1.5,1.2-2.7,2.7-2.7h46.8c1.5,0,2.7,1.2,2.7,2.7L56.4,44.3
	L56.4,44.3z"/>
<path class="st2" d="M6.8,13.4h46.8c1.5,0,2.7,1.2,2.7,2.7v28.2c0,1.5-1.2,2.7-2.7,2.7H6.8c-1.5,0-2.7-1.2-2.7-2.7V16.1
	C4.1,14.6,5.3,13.4,6.8,13.4z"/>
<path class="st3" d="M55.5,10.6H4.9c-0.5,0-0.8-0.4-0.8-0.8V5.6c0-0.5,0.4-0.8,0.8-0.8h50.6c0.5,0,0.8,0.4,0.8,0.8v4.2
	C56.4,10.3,56,10.6,55.5,10.6z"/>
<circle class="st4" cx="7.8" cy="53.9" r="3.7"/>
<circle class="st4" cx="52.6" cy="53.9" r="3.7"/>
</svg>
