<svg xmlns="http://www.w3.org/2000/svg" width="565.47" height="284.99" viewBox="0 0 565.472 284.986" enable-background="new 0 0 565.472 284.986"><g fill="#555"><path d="m316.78 97.07v24.332c0 6.347-1.574 10.578-4.717 12.693-3.145 2.116-8.098 3.174-14.855 3.174h-19.217c-1.412 0-2.117-1.058-2.117-3.174v-49.72c0-2.115.705-3.173 2.117-3.173h19.746c3.174 0 5.818.191 7.934.573 2.117.383 4.07 1.132 5.863 2.248 1.793 1.117 3.115 2.748 3.967 4.893.852 2.146 1.279 4.863 1.279 8.154m-4.586 24.332v-24.332c0-4.818-1.027-7.904-3.084-9.256-2.059-1.352-5.85-2.028-11.373-2.028h-17.279v46.899h16.75c5.76 0 9.697-.661 11.814-1.983 2.116-1.322 3.172-4.421 3.172-9.3"/><path d="m331.94 80.67c.939 0 1.924.353 2.953 1.058 1.027.705 1.543 1.559 1.543 2.557 0 1-.516 1.852-1.543 2.557-1.029.705-2.01 1.059-2.953 1.059-1 0-1.998-.354-2.998-1.059s-1.498-1.557-1.498-2.557c0-.998.498-1.852 1.498-2.557s1.998-1.058 2.998-1.058m-.088 57.655c-1.471 0-2.205-.941-2.205-2.821v-37.03c0-1.939.764-2.908 2.293-2.908 1.527 0 2.291.969 2.291 2.908v37.03c0 1.881-.793 2.822-2.379 2.822"/><path d="m388.01 144.94c0 3.82-.559 6.509-1.676 8.07-1.117 1.557-3.232 2.336-6.346 2.336h-24.949c-1.883 0-3.453-.279-4.717-.837-1.264-.56-2.176-1.366-2.732-2.425-.561-1.058-.926-2.086-1.102-3.085-.178-1-.266-2.175-.266-3.526 0-2.059.764-3.086 2.293-3.086 1.527 0 2.291.971 2.291 2.91 0 2.057.354 3.481 1.059 4.275.705.793 1.969 1.189 3.791 1.189h23.715c1.703 0 2.805-.295 3.305-.881.498-.588.75-1.764.75-3.527v-9.08h-17.631c-6.76 0-11.713-1.043-14.855-3.129-3.145-2.086-4.717-6.215-4.717-12.387v-9.609c0-6.17 1.572-10.299 4.717-12.385 3.143-2.086 8.096-3.131 14.855-3.131h2.557c6.58 0 11.605 1.852 15.07 5.555v-3.084c0-2.057.764-3.086 2.291-3.086 1.529 0 2.293 1 2.293 2.998v45.929m-4.584-12.253v-15.956c0-10.343-5.02-15.516-15.07-15.516h-2.557c-2.998 0-5.305.103-6.922.308-1.617.207-3.115.678-4.496 1.411-1.381.735-2.322 1.837-2.82 3.306-.5 1.471-.75 3.469-.75 5.995v9.433c0 2.527.25 4.526.75 5.994.498 1.471 1.439 2.572 2.82 3.307 1.381.735 2.879 1.205 4.496 1.41 1.617.207 3.924.309 6.922.309h17.631"/><path d="m403.44 80.67c.939 0 1.924.353 2.953 1.058 1.027.705 1.543 1.559 1.543 2.557 0 1-.516 1.852-1.543 2.557-1.029.705-2.01 1.059-2.953 1.059-1 0-1.998-.354-2.998-1.059s-1.498-1.557-1.498-2.557c0-.998.498-1.852 1.498-2.557s1.998-1.058 2.998-1.058m-.087 57.655c-1.471 0-2.205-.941-2.205-2.821v-37.03c0-1.939.764-2.908 2.293-2.908 1.527 0 2.291.969 2.291 2.908v37.03c-.001 1.881-.793 2.822-2.379 2.822"/><path d="m423.72 121.67c0 4.761 1.014 7.788 3.041 9.08 2.027 1.294 5.744 1.939 11.15 1.939 2.057 0 3.086.705 3.086 2.116 0 1.646-1.029 2.468-3.086 2.468-6.346 0-11.06-1.058-14.15-3.174-3.086-2.115-4.629-6.229-4.629-12.342v-20.629c-1.822-.117-2.732-.91-2.732-2.38 0-1.292.91-1.997 2.732-2.116v-9.168c0-2.115.705-3.174 2.117-3.174 1.645 0 2.469 1.059 2.469 3.174v9.168h12.164c2.117 0 3.174.824 3.174 2.469 0 1.41-1.057 2.116-3.174 2.116h-12.164v20.453"/><path d="m467.53 111.27h12.959v-5.03c0-1.82-.34-3.114-1.014-3.879-.676-.763-1.955-1.146-3.836-1.146h-12.43c-7.17 0-10.754 1.763-10.754 5.289 0 2.058-.795 3.085-2.381 3.085-1.471 0-2.205-1.027-2.205-3.085 0-3.407 1.352-5.906 4.057-7.493 2.701-1.587 6.258-2.381 10.666-2.381h13.664c3.408 0 5.73.824 6.965 2.469 1.234 1.646 1.852 4.526 1.852 8.64v27.15c0 1.999-.764 2.997-2.291 2.997-1.529 0-2.293-1.027-2.293-3.085v-3.085c-3.35 3.702-8.346 5.553-14.986 5.553h-8.199c-2.764 0-5.02-.982-6.787-2.953-1.764-1.969-2.646-4.598-2.646-7.89 0-5.936 1.602-9.946 4.805-12.03 3.202-2.085 8.155-3.129 14.854-3.129m0 4.584c-2.998 0-5.305.104-6.92.309-1.617.207-3.131.676-4.541 1.41-1.41.736-2.365 1.838-2.865 3.307s-.748 3.469-.748 5.994c0 1.529.498 2.881 1.498 4.056.998 1.177 2.115 1.763 3.35 1.763h8.199c4.936 0 8.668-1.336 11.195-4.01 2.527-2.674 3.791-6.509 3.791-11.505v-1.322h-12.959z"/><path d="m508.79 137.27h-.617c-3.408 0-5.73-.837-6.965-2.512-1.234-1.676-1.85-4.569-1.85-8.684v-42.4c0-2.057.762-3.085 2.291-3.085 1.527 0 2.293 1.028 2.293 3.085v43.902c0 1.882.336 3.205 1.014 3.967.674.766 1.953 1.146 3.834 1.146 2.057 0 3.086.794 3.086 2.381 0 1.469-1.029 2.203-3.086 2.203"/><path d="m562.12 112.15v3.527h-37.2v5.994c0 2.527.248 4.526.748 5.994.5 1.471 1.455 2.572 2.865 3.307 1.412.735 2.924 1.205 4.541 1.41 1.615.207 3.924.309 6.92.309h11.813c1.881 0 3.16-.41 3.836-1.234.674-.822 1.014-2.232 1.014-4.23 0-1.939.764-2.91 2.293-2.91 1.527 0 2.291 1.059 2.291 3.174 0 1.354-.088 2.527-.264 3.526-.178 1-.545 2.01-1.104 3.042-.559 1.028-1.469 1.822-2.732 2.38-1.264.56-2.836.837-4.717.837h-12.43c-6.76 0-11.725-1.043-14.898-3.129s-4.76-6.215-4.76-12.387v-9.609c0-6.17 1.586-10.299 4.76-12.385s8.139-3.131 14.898-3.131h2.557c6.758 0 11.711 1.045 14.855 3.131 3.143 2.086 4.715 6.215 4.715 12.384m-19.57-10.93h-2.557c-5.701 0-9.623.603-11.77 1.808-2.145 1.205-3.248 3.894-3.305 8.07h32.617c-.059-4.173-1.16-6.861-3.305-8.07-2.145-1.206-6.04-1.808-11.68-1.808"/><path d="m316.78 172.88v24.332c0 6.347-1.574 10.579-4.717 12.694-3.145 2.116-8.098 3.174-14.855 3.174h-19.217c-1.412 0-2.117-1.058-2.117-3.174v-49.721c0-2.116.705-3.173 2.117-3.173h19.746c3.174 0 5.818.191 7.934.572 2.117.383 4.07 1.133 5.863 2.248 1.793 1.117 3.115 2.748 3.967 4.893.852 2.147 1.279 4.864 1.279 8.155m-4.586 24.332v-24.332c0-4.818-1.027-7.903-3.084-9.256-2.059-1.352-5.85-2.027-11.373-2.027h-17.279v46.899h16.75c5.76 0 9.697-.661 11.814-1.983 2.116-1.323 3.172-4.422 3.172-9.301"/><path d="m358.93 213.09h-2.557c-6.76 0-11.725-1.043-14.898-3.13-3.174-2.085-4.76-6.215-4.76-12.386v-9.609c0-6.171 1.586-10.3 4.76-12.386s8.139-3.13 14.898-3.13h2.557c6.758 0 11.711 1.044 14.855 3.13 3.143 2.086 4.715 6.215 4.715 12.386v9.609c0 6.171-1.572 10.301-4.715 12.386-3.144 2.087-8.098 3.13-14.855 3.13m-2.557-4.584h2.557c2.998 0 5.303-.103 6.92-.309 1.617-.205 3.115-.675 4.496-1.411 1.381-.733 2.322-1.836 2.822-3.306.498-1.468.748-3.467.748-5.994v-9.433c0-2.527-.25-4.525-.748-5.995-.5-1.469-1.441-2.57-2.822-3.306-1.381-.734-2.879-1.204-4.496-1.411-1.617-.205-3.922-.308-6.92-.308h-2.557c-2.996 0-5.305.103-6.92.308-1.617.207-3.129.677-4.541 1.411-1.41.735-2.365 1.837-2.865 3.306-.5 1.47-.748 3.468-.748 5.995v9.433c0 2.527.248 4.526.748 5.994.5 1.47 1.455 2.572 2.865 3.306 1.412.736 2.924 1.206 4.541 1.411 1.615.206 3.924.309 6.92.309m-5.113-48.22c.939 0 1.926.352 2.953 1.057 1.027.706 1.543 1.559 1.543 2.557 0 1-.516 1.852-1.543 2.557s-2.01 1.059-2.953 1.059c-1 0-1.998-.354-2.996-1.059-1-.705-1.5-1.557-1.5-2.557 0-.998.5-1.851 1.5-2.557.998-.705 1.996-1.057 2.996-1.057m12.871 0c.939 0 1.924.352 2.953 1.057 1.027.706 1.543 1.559 1.543 2.557 0 1-.516 1.852-1.543 2.557-1.029.705-2.01 1.059-2.953 1.059-1 0-1.998-.354-2.996-1.059-1-.705-1.5-1.557-1.5-2.557 0-.998.5-1.851 1.5-2.557.998-.705 1.996-1.057 2.996-1.057"/><path d="m417.4 177.03c-4.584 0-8.098 1.352-10.535 4.055-2.439 2.703-3.658 6.582-3.658 11.637v17.984c0 1.998-.764 2.997-2.293 2.997-1.527 0-2.291-.999-2.291-2.997v-35.793c0-2.056.705-3.085 2.115-3.085 1.645 0 2.469 1.058 2.469 3.174v2.997c3.467-3.702 8.199-5.554 14.193-5.554h4.055c2.057 0 3.086.765 3.086 2.292 0 1.529-1.029 2.293-3.086 2.293h-4.055"/><path d="m459.81 161.6c-2.764 0-4.893.104-6.393.309-1.498.206-2.908.66-4.23 1.365-1.322.706-2.248 1.794-2.777 3.263-.529 1.47-.793 3.438-.793 5.906h12.166c2.115 0 3.174.823 3.174 2.468 0 1.411-1.059 2.117-3.174 2.117h-12.166v33.587c0 2.059-.824 3.086-2.469 3.086-1.41 0-2.115-1.027-2.115-3.086v-33.677c-1.822-.117-2.734-.911-2.734-2.38 0-1.293.912-1.998 2.734-2.116.057-3.231.514-5.906 1.365-8.02.852-2.115 2.174-3.703 3.967-4.76 1.793-1.059 3.703-1.764 5.73-2.116s4.598-.528 7.715-.528c2.115 0 3.174.823 3.174 2.468 0 1.41-1.058 2.116-3.174 2.116"/><path d="m517.13 187.96v3.526h-37.2v5.995c0 2.527.25 4.526.75 5.994.498 1.47 1.455 2.572 2.865 3.306 1.41.736 2.922 1.206 4.539 1.411 1.617.206 3.924.309 6.922.309h11.813c1.881 0 3.158-.411 3.834-1.234.676-.822 1.014-2.232 1.014-4.231 0-1.939.764-2.909 2.293-2.909 1.527 0 2.293 1.058 2.293 3.174 0 1.353-.09 2.527-.266 3.526-.176 1-.543 2.01-1.102 3.041-.559 1.029-1.471 1.822-2.732 2.38-1.266.56-2.836.838-4.717.838h-12.43c-6.76 0-11.725-1.043-14.898-3.13-3.174-2.085-4.762-6.215-4.762-12.386v-9.609c0-6.171 1.588-10.3 4.762-12.386s8.139-3.13 14.898-3.13h2.557c6.758 0 11.709 1.044 14.854 3.13s4.716 6.214 4.716 12.385m-19.57-10.931h-2.557c-5.701 0-9.625.603-11.77 1.807-2.146 1.205-3.248 3.895-3.307 8.07h32.619c-.059-4.172-1.162-6.861-3.307-8.07-2.145-1.204-6.04-1.807-11.678-1.807"/><path d="m555.49 177.03c-4.584 0-8.096 1.352-10.533 4.055-2.439 2.703-3.66 6.582-3.66 11.637v17.984c0 1.998-.764 2.997-2.291 2.997-1.529 0-2.293-.999-2.293-2.997v-35.793c0-2.056.705-3.085 2.117-3.085 1.645 0 2.467 1.058 2.467 3.174v2.997c3.469-3.702 8.199-5.554 14.193-5.554h4.057c2.057 0 3.086.765 3.086 2.292 0 1.529-1.029 2.293-3.086 2.293h-4.057"/></g><path fill="#fff" d="m128.85 3.158l124.44 71.892.05 139.64-124.57 71.93-124.66-71.97.031-139.44z"/><path fill="#69bfac" d="m128.85 145.93l-119.93-69.27 119.93-69.27 119.93 69.27-119.93 69.27"/><path fill="#b1c800" d="m249.62 212.61v-131.4l-118.83 68.6v131.41z"/><path fill="#009374" d="m7.831 212.56v-131.4l118.83 68.61v131.4z"/><g fill="#fff"><path d="m101.26 213.41c.761 1.743 1.475 2.428 1.462 3.609-.017 1.183-.667 2.683-1.416 5.242-1.501 5.148-3.924 11.95-6.475 15.04-.638.774-1.246 1.114-1.9 1.199-.659.089-1.466-.072-3.507-.663-4.885-1.411-13.264-3.852-14.01-4.068-10.471-3.044-19.212-10.08-11.785-15.772.676-.523 1.071-1.828-.693-1.943-5.412-.349-1.054-9.191-2.47-11.437-1.985-3.154-1.092 1.591-11.632-2.117-2.87-1.01-10.539 5.213-17.324 3.065-.872-.276-3.495-.927-1.28-4.03 2.56-3.597 5.455-6.01 3.108-10.535-.906-1.747-9.378-4.565-9.851-8.388-1.037-8.35.026-18.02 9.434-18.677 1.658-.11 5.65-2.598 7.44-.777 1.161 1.182 3.792-.149 4.544-1.663.604-1.216-1.326-3.843-.744-4.404.812-.786 3.626 1.11 5.01-.264 1.386-1.373 8.252-9.238 9.234-9.727.986-.493.884 2.257 2.555 1.471s9.787-5.467 14.935-8.843c2-1.31 2.848-2.355 3.048-4.323.123-1.229 3.652-1.11 5.306.884.395.477 9.629 10.123 7.465 18.276-.655 2.466-4.4.162-4.821.565-2.385 2.313 2.712 10.557 3.125 11.776.374 1.093 1.101 2.717.387 2.76-1.866.098-4.604 2.206-6.092 4.119-1.246 1.611.098 2.955-.132 3.575-.28.766-1.233-.004-2.24.03-1.883.063-4.23.956-2.615 3.443 3.452 5.31 7.853 2.113 13.915 1.501 3.584-.357 9.413 6.7 9.183 12.81-.03.79-.28 1.012-.501 1.769-.196.671-1.241.773-1.811 1.483-2.997 3.726-.637 10.911 1.144 15.02"/><path d="m208.85 184.07c-6.314-2.01-5.326-7.18-1.489-12.552 8.423-11.832 14.27-24.584 19.376-38.822 2.288-6.381 1.736-7.455.877-7.676-.857-.218-1.295-1.414-4.494 4.058-14.268 24.401-37.908 58.857-61.773 37.632-1.383-1.23-3.344-3.957-4.118-3.03-.774.929.993 3.938 1.968 6 3.666 7.771 10.392 14.05 18.08 16.467 12.279 2.631.186 11.606-4.093 21.749-6.604 12.05-12.42 26.28-16.604 37.4-4.05 10.763-5.05 12.338-4.03 12.827.962.456 1.171-1.854 7.136-11.935 14.17-23.945 41.37-61.846 63.53-44.83 1.949 1.495 3.836 4.142 4.534 3.324 1.086-1.272-.828-3.822-2.505-6.677-3.813-6.483-9.735-11.69-16.397-13.945"/><path d="m188.92 164.85c6.895-1.324 12.427-8.508 12.353-16.04-.078-7.537-5.732-12.568-12.627-11.244-6.898 1.328-12.43 8.505-12.355 16.05.075 7.533 5.731 12.565 12.629 11.238"/><path d="m192.24 98.95c-4.751 5.539-15.41 7.581-23.805 4.562-6.769-2.438-9.978-7.42-8.483-12.162.071-.225-.811-.871-.811-.871l-14.996-2.81c0 0-1.289-.225-2.02.2-1.361.791-2.88 1.393-4.555 1.729-1.056.213-1.073.658-1.073.658l1.27 5.598c0 0 .196.788 1.211.916.554.068 1.056.221 1.557.401 3.232 1.161 4.366 3.831 2.538 5.964-1.826 2.129-5.927 2.914-9.153 1.752-3.229-1.162-4.366-3.832-2.537-5.962.374-.437.844-.815 1.384-1.132.239-.144.49-.271.754-.389.018-.006.038-.015.058-.023l-.117-.51-1.446-6.378c0 0-.198-.681-1.035-.825-.84-.145-1.646-.367-2.434-.648-1.826-.658-3.282-1.594-4.268-2.684-.428-.479-1.478-.156-1.478-.156l-15.975 4.934c0 0-1.01.277-.84 1.025.542 2.437-.056 5.01-2.053 7.342-4.753 5.539-15.41 7.579-23.804 4.561-8.396-3.02-11.351-9.964-6.6-15.501 4.751-5.539 15.408-7.581 23.804-4.562 2.774 1 4.956 2.427 6.452 4.092.498.55 1.523.291 1.523.291l16.293-5.03c0 0 1.027-.336 1.037-.937.01-.614.119-1.232.364-1.839.219-.533.754-1.691.754-1.691l-6.809-3.615c0 0-4.051.07-4.398.119-1.253.178-2.597.072-3.797-.359-2.664-.96-3.596-3.16-2.092-4.917 1.508-1.757 4.884-2.402 7.548-1.445 2.11.76 3.134 2.3 2.716 3.78-.055.191-1.219 1.885-1.219 1.885l9.141 2.822c0 0 1.03.014 1.247-.13.339-.218.694-.425 1.064-.618.251-.128.281-1.16.281-1.16l-11.415-18.52c0 0-1.402-.484-1.917-.436-3.609.34-7.387-.043-10.791-1.271-8.395-3.02-11.35-9.96-6.599-15.501 4.751-5.54 15.408-7.581 23.803-4.561 8.394 3.02 11.351 9.963 6.598 15.502-1.461 1.705-3.486 3.076-5.829 4.073-.464.193-1.12 1.042-1.12 1.042l11.356 18.424c0 0 1.231.824 1.568.797 2.111-.167 4.297.041 6.321.672.202.061 4.064.99 4.064.99l5.826-4.139c0 0-1.553-1.855-1.662-2.051-.743-1.268-.646-2.742.462-4.04 1.979-2.309 6.422-3.158 9.922-1.896 3.497 1.256 4.727 4.146 2.748 6.457-1.756 2.047-5.437 2.945-8.688 2.246-.274-.06-1.577.285-1.577.285l-6.01 3.907c0 0-.389.944-.193 1.157 1.436 1.587 2.09 3.488 1.379 5.35-.388 1.01.8 1.333.8 1.333l13.902 2.602c0 0 1.975-.206 2.217-.442 5.056-4.926 15.06-6.628 23.04-3.758 8.398 3.02 11.352 9.962 6.604 15.501"/><path d="m122.22 59.27c3.995 7.157 8.812 13.275 14.848 15.572l-9.711 1.69c-3.357-7.142-7.923-14.899-9.933-17.765l4.796.503"/><path d="m162.88 92.67c-7.801-3.166-14.215-5.05-23.554-3.974l4.834-6.343c4.68 3.075 13.68 5.469 21.06 5.545l-2.341 4.772"/><path d="m139.81 96.9c-2.853-1.688-4.333-6.279-.474-7.798l-11.852-.479c5.279 2.681 6.293 7.843 5.104 9.322l7.222-1.045"/><path d="m147.35 68.38c1.512 6.088-6.433 7.475-11.278 6.733l8.115 4.03c1.15-4.123 7.746-6.123 10.536-6.625l-7.373-4.138"/><path d="m122.89 81.29c-5.525 4.476-17.898 6.78-21.21 4.944l4.107 7.98c1.151-4.121 15.425-8.135 21.553-5.993l-4.451-6.931"/><path d="m112.45 75.07c8.28.885 10.804 4.339 9.843 6.847l4.408-5.13c-2.28.412-9.845-2.375-10.479-3.749l-3.772 2.032"/></g></svg>