<?xml version="1.0" encoding="utf-8"?>
<!-- Generator: Adobe Illustrator 19.2.1, SVG Export Plug-In . SVG Version: 6.00 Build 0)  -->
<svg version="1.1" id="Ebene_1" xmlns="http://www.w3.org/2000/svg" xmlns:xlink="http://www.w3.org/1999/xlink" x="0px" y="0px"
	 viewBox="0 0 51.3 66.1" style="enable-background:new 0 0 51.3 66.1;" xml:space="preserve">
<style type="text/css">
	.st0{fill:#FFFFFF;stroke:#1D1D1B;stroke-miterlimit:10;}
	.st1{fill:#5C5C5C;stroke:#1D1D1B;stroke-miterlimit:10;}
	.st2{stroke:#1D1D1B;stroke-miterlimit:10;}
	.st3{fill:none;stroke:#1D1D1B;stroke-miterlimit:10;}
</style>
<title>position_icon</title>
<circle class="st0" cx="25.7" cy="40.4" r="25.2"/>
<ellipse class="st1" cx="25.7" cy="10.9" rx="17.1" ry="10.4"/>
<path class="st1" d="M50.7,15.8v1.5c0,2.5-2,4.5-4.5,4.5h-41c-2.5,0-4.5-2-4.5-4.5v-1.5c0-2.5,2-4.5,4.5-4.5h41
	C48.7,11.3,50.7,13.3,50.7,15.8z"/>
<circle class="st0" cx="38.3" cy="30.5" r="4.4"/>
<circle class="st2" cx="38.3" cy="30.5" r="1.4"/>
<circle class="st0" cx="13.4" cy="30.5" r="4.4"/>
<circle class="st2" cx="13.4" cy="30.5" r="1.4"/>
<path class="st3" d="M9,49.1c0,7.8,33.7,8,33.7,0"/>
<path class="st3" d="M25.9,49.1c-3.6-0.3-1.5-7.6,0-14.1"/>
</svg>
